<svg id="icon-instagram" xmlns="http://www.w3.org/2000/svg" width="45.069" height="45.078" viewBox="0 0 45.069 45.078">
  <path id="Path_3" data-name="Path 3" d="M45.4,13.253a16.471,16.471,0,0,0-1.048-5.469,11.547,11.547,0,0,0-6.6-6.6A16.514,16.514,0,0,0,32.291.141C29.878.027,29.112,0,22.992,0S16.106.027,13.7.132A16.476,16.476,0,0,0,8.233,1.18a11,11,0,0,0-4,2.607,11.1,11.1,0,0,0-2.6,3.989A16.516,16.516,0,0,0,.59,13.244c-.115,2.413-.141,3.179-.141,9.3s.026,6.886.132,9.29A16.471,16.471,0,0,0,1.629,37.3a11.545,11.545,0,0,0,6.6,6.6,16.516,16.516,0,0,0,5.469,1.048c2.4.106,3.17.132,9.29.132s6.886-.026,9.29-.132A16.467,16.467,0,0,0,37.742,43.9a11.53,11.53,0,0,0,6.6-6.6,16.527,16.527,0,0,0,1.048-5.469c.106-2.4.132-3.17.132-9.29s-.009-6.886-.115-9.29Zm-4.059,18.4a12.356,12.356,0,0,1-.775,4.183,7.478,7.478,0,0,1-4.28,4.28,12.4,12.4,0,0,1-4.183.775c-2.378.106-3.091.132-9.105.132S16.264,41,13.9,40.895a12.349,12.349,0,0,1-4.183-.775,6.936,6.936,0,0,1-2.589-1.682,7.008,7.008,0,0,1-1.682-2.589,12.4,12.4,0,0,1-.775-4.183c-.106-2.378-.132-3.091-.132-9.106s.026-6.737.132-9.105a12.349,12.349,0,0,1,.775-4.183A6.851,6.851,0,0,1,7.133,6.684,7,7,0,0,1,9.721,5,12.408,12.408,0,0,1,13.9,4.227c2.378-.106,3.091-.132,9.105-.132s6.737.026,9.106.132A12.355,12.355,0,0,1,36.3,5a6.931,6.931,0,0,1,2.589,1.682,7.007,7.007,0,0,1,1.682,2.589,12.406,12.406,0,0,1,.775,4.183c.106,2.378.132,3.091.132,9.105s-.026,6.719-.132,9.1Zm0,0" transform="translate(-0.449 0)" fill="#1a1c20"/>
  <path id="Path_4" data-name="Path 4" d="M136.529,124.5a11.58,11.58,0,1,0,11.58,11.58A11.583,11.583,0,0,0,136.529,124.5Zm0,19.091a7.512,7.512,0,1,1,7.512-7.512A7.513,7.513,0,0,1,136.529,143.591Zm0,0" transform="translate(-113.986 -113.537)" fill="#1a1c20"/>
  <path id="Path_5" data-name="Path 5" d="M367.857,91.305a2.7,2.7,0,1,1-2.7-2.7A2.7,2.7,0,0,1,367.857,91.305Zm0,0" transform="translate(-330.572 -80.8)" fill="#1a1c20"/>
</svg>
