<svg id="icon-twitter" xmlns="http://www.w3.org/2000/svg" width="55.604" height="45.178" viewBox="0 0 55.604 45.178">
  <g id="Group_8" data-name="Group 8">
    <path id="Path_7" data-name="Path 7" d="M55.6,53.348a23.767,23.767,0,0,1-6.568,1.8,11.335,11.335,0,0,0,5.015-6.3,22.781,22.781,0,0,1-7.229,2.759A11.4,11.4,0,0,0,27.1,59.4a11.738,11.738,0,0,0,.264,2.6,32.266,32.266,0,0,1-23.5-11.924,11.4,11.4,0,0,0,3.5,15.235,11.258,11.258,0,0,1-5.15-1.4v.125a11.452,11.452,0,0,0,9.133,11.2,11.377,11.377,0,0,1-2.989.375,10.079,10.079,0,0,1-2.158-.195,11.508,11.508,0,0,0,10.652,7.941A22.9,22.9,0,0,1,2.728,88.219,21.351,21.351,0,0,1,0,88.063a32.092,32.092,0,0,0,17.487,5.116c20.977,0,32.445-17.376,32.445-32.438,0-.5-.017-.99-.042-1.474A22.741,22.741,0,0,0,55.6,53.348Z" transform="translate(0 -48)" fill="#1a1c20"/>
  </g>
</svg>
