<svg id="icon-facebook" xmlns="http://www.w3.org/2000/svg" width="44.91" height="44.91" viewBox="0 0 44.91 44.91">
  <path id="Path_6" data-name="Path 6" d="M42.43,0H2.479A2.479,2.479,0,0,0,0,2.48V42.431a2.48,2.48,0,0,0,2.479,2.48H23.987V27.519H18.135V20.741h5.852v-5c0-5.8,3.541-8.96,8.716-8.96a48.541,48.541,0,0,1,5.229.266v6.062H34.343c-2.814,0-3.357,1.338-3.357,3.3v4.327H37.7l-.878,6.778H30.986V44.909H42.429a2.481,2.481,0,0,0,2.481-2.478V2.478A2.479,2.479,0,0,0,42.43,0Z" transform="translate(0 -0.001)" fill="#1a1c20"/>
</svg>
